<svg xmlns="http://www.w3.org/2000/svg" viewBox="0 0 1080 1920" role="img" aria-labelledby="t d"><title id="t">Sudoku Duel career mode preview</title><desc id="d">A stylized preview of the Sudoku Duel career dashboard.</desc><defs><linearGradient id="bg" x1="80" y1="0" x2="1000" y2="1920"><stop stop-color="#0A1026"/><stop offset=".55" stop-color="#17133B"/><stop offset="1" stop-color="#090E20"/></linearGradient><linearGradient id="a" x1="150" y1="300" x2="900" y2="1500"><stop stop-color="#58D7FF"/><stop offset=".5" stop-color="#7F73FF"/><stop offset="1" stop-color="#C580FF"/></linearGradient></defs><rect width="1080" height="1920" fill="url(#bg)"/><circle cx="916" cy="258" r="280" fill="#6D59FF" opacity=".14"/><circle cx="82" cy="1520" r="340" fill="#3EDCFF" opacity=".08"/><g font-family="Sora,Arial,sans-serif" fill="#F7F8FF"><text x="84" y="156" font-size="34" font-weight="700" letter-spacing="5" fill="#94A7D9">SUDOKU DUEL</text><text x="84" y="240" font-size="62" font-weight="800">Build your career.</text><text x="84" y="298" font-size="27" fill="#AAB4D3">Solve, climb divisions and prepare for online duels.</text></g><rect x="72" y="374" width="936" height="242" rx="52" fill="#141D3C" stroke="#7588D5" stroke-opacity=".35" stroke-width="3"/><circle cx="190" cy="494" r="72" fill="#202D57" stroke="#75DFFF" stroke-width="4"/><path d="M154 514h72M190 450v88" stroke="#7DE5FF" stroke-width="8" stroke-linecap="round"/><g font-family="Sora,Arial,sans-serif"><text x="302" y="457" fill="#A5B1D4" font-size="26">CURRENT DIVISION</text><text x="302" y="516" fill="#FFFFFF" font-size="50" font-weight="800">Sapphire III</text><text x="302" y="566" fill="#7EE7FF" font-size="26" font-weight="700">1,420 XP · 68% to promotion</text></g><rect x="302" y="582" width="590" height="13" rx="7" fill="#26345B"/><rect x="302" y="582" width="402" height="13" rx="7" fill="url(#a)"/><g font-family="Sora,Arial,sans-serif"><text x="76" y="726" fill="#AAB4D3" font-size="25" font-weight="700" letter-spacing="3">PLAY MODES</text></g><g><rect x="72" y="770" width="936" height="238" rx="48" fill="#111A36" stroke="#6076C8" stroke-opacity=".32" stroke-width="3"/><rect x="98" y="796" width="246" height="186" rx="36" fill="#1C2850"/><g stroke="#A8B8EC" stroke-width="3" opacity=".65"><path d="M180 828v122M262 828v122M118 868h204M118 910h204"/></g><text x="392" y="858" fill="#F6F7FF" font-family="Sora,Arial,sans-serif" font-size="42" font-weight="800">Career Sudoku</text><text x="392" y="910" fill="#AAB4D3" font-family="Sora,Arial,sans-serif" font-size="25">Progress through handcrafted goals</text><text x="392" y="958" fill="#7EE7FF" font-family="Sora,Arial,sans-serif" font-size="24" font-weight="700">CONTINUE →</text></g><g><rect x="72" y="1038" width="450" height="270" rx="46" fill="#131B38" stroke="#7E6FFF" stroke-opacity=".4" stroke-width="3"/><circle cx="173" cy="1141" r="55" fill="#211D52"/><path d="M155 1110l41 31-41 31z" fill="#9C8CFF"/><text x="98" y="1238" fill="#FFFFFF" font-family="Sora,Arial,sans-serif" font-size="36" font-weight="800">Online Duel</text><text x="98" y="1277" fill="#AAB4D3" font-family="Sora,Arial,sans-serif" font-size="22">Ranked head-to-head Sudoku</text></g><g><rect x="558" y="1038" width="450" height="270" rx="46" fill="#131B38" stroke="#48D8FF" stroke-opacity=".35" stroke-width="3"/><circle cx="659" cy="1141" r="55" fill="#18354B"/><path d="M659 1098v86M616 1141h86" stroke="#69E2FF" stroke-width="7" stroke-linecap="round"/><text x="584" y="1238" fill="#FFFFFF" font-family="Sora,Arial,sans-serif" font-size="36" font-weight="800">Daily Challenge</text><text x="584" y="1277" fill="#AAB4D3" font-family="Sora,Arial,sans-serif" font-size="22">One fresh board, every day</text></g><text x="76" y="1404" fill="#AAB4D3" font-family="Sora,Arial,sans-serif" font-size="25" font-weight="700" letter-spacing="3">TODAY</text><rect x="72" y="1446" width="936" height="262" rx="48" fill="#111A36" stroke="#6076C8" stroke-opacity=".3" stroke-width="3"/><g font-family="Sora,Arial,sans-serif"><text x="112" y="1520" fill="#F5F6FF" font-size="32" font-weight="800">3 career wins</text><text x="112" y="1575" fill="#AAB4D3" font-size="23">Finish today’s objective to claim coins.</text><text x="112" y="1642" fill="#78E6FF" font-size="28" font-weight="800">2 / 3 completed</text></g><rect x="112" y="1662" width="824" height="14" rx="7" fill="#26345B"/><rect x="112" y="1662" width="550" height="14" rx="7" fill="url(#a)"/><text x="540" y="1838" fill="#7583AA" font-family="Sora,Arial,sans-serif" font-size="20" text-anchor="middle">Development preview · final UI may evolve</text></svg>