<svg xmlns="http://www.w3.org/2000/svg" viewBox="0 0 1080 1920" role="img" aria-labelledby="t d"><title id="t">Sudoku Duel progression preview</title><desc id="d">Stylized preview of ranks, achievements and virtual currency progression.</desc><defs><linearGradient id="bg" x1="80" y1="0" x2="1020" y2="1920"><stop stop-color="#0A1024"/><stop offset=".52" stop-color="#181239"/><stop offset="1" stop-color="#090D1D"/></linearGradient><linearGradient id="a" x1="180" y1="340" x2="940" y2="1500"><stop stop-color="#62E3FF"/><stop offset=".48" stop-color="#8075FF"/><stop offset="1" stop-color="#E59BFF"/></linearGradient></defs><rect width="1080" height="1920" fill="url(#bg)"/><circle cx="910" cy="270" r="300" fill="#7458FF" opacity=".14"/><text x="76" y="146" fill="#91A4D6" font-family="Sora,Arial,sans-serif" font-size="31" font-weight="700" letter-spacing="5">PROGRESSION</text><text x="76" y="226" fill="#FFFFFF" font-family="Sora,Arial,sans-serif" font-size="60" font-weight="800">Every solve moves you forward.</text><text x="76" y="282" fill="#AAB5D4" font-family="Sora,Arial,sans-serif" font-size="25">Ranks, achievements and optional rewards stay connected to play.</text><rect x="72" y="360" width="936" height="366" rx="54" fill="#121A37" stroke="#776EFF" stroke-opacity=".42" stroke-width="3"/><circle cx="540" cy="512" r="106" fill="#202557" stroke="url(#a)" stroke-width="8"/><path d="M540 422l28 57 63 9-46 44 11 63-56-30-56 30 11-63-46-44 63-9 28-57z" fill="url(#a)"/><text x="540" y="662" text-anchor="middle" fill="#FFFFFF" font-family="Sora,Arial,sans-serif" font-size="44" font-weight="800">Sapphire III</text><text x="540" y="700" text-anchor="middle" fill="#83E7FF" font-family="Sora,Arial,sans-serif" font-size="23" font-weight="700">RANKED SEASON PROGRESS</text><text x="76" y="826" fill="#AAB4D3" font-family="Sora,Arial,sans-serif" font-size="25" font-weight="700" letter-spacing="3">ACHIEVEMENTS</text><g><rect x="72" y="868" width="288" height="330" rx="44" fill="#111A35" stroke="#5873C0" stroke-opacity=".32" stroke-width="3"/><circle cx="216" cy="987" r="68" fill="#173A4C"/><path d="M182 994l24 24 47-56" fill="none" stroke="#6BE8FF" stroke-width="10" stroke-linecap="round" stroke-linejoin="round"/><text x="216" y="1092" text-anchor="middle" fill="#FFFFFF" font-family="Sora,Arial,sans-serif" font-size="28" font-weight="800">Clean Board</text><text x="216" y="1133" text-anchor="middle" fill="#AAB4D3" font-family="Sora,Arial,sans-serif" font-size="19">Win with no mistakes</text></g><g><rect x="396" y="868" width="288" height="330" rx="44" fill="#111A35" stroke="#7A6BE0" stroke-opacity=".36" stroke-width="3"/><circle cx="540" cy="987" r="68" fill="#2D2356"/><path d="M540 936v102M489 987h102" stroke="#B59BFF" stroke-width="10" stroke-linecap="round"/><text x="540" y="1092" text-anchor="middle" fill="#FFFFFF" font-family="Sora,Arial,sans-serif" font-size="28" font-weight="800">Career 25</text><text x="540" y="1133" text-anchor="middle" fill="#AAB4D3" font-family="Sora,Arial,sans-serif" font-size="19">Complete 25 stages</text></g><g><rect x="720" y="868" width="288" height="330" rx="44" fill="#111A35" stroke="#AD6BE0" stroke-opacity=".32" stroke-width="3"/><circle cx="864" cy="987" r="68" fill="#3C214A"/><path d="M827 1020l37-82 37 82-37-20-37 20z" fill="#E1A0FF"/><text x="864" y="1092" text-anchor="middle" fill="#FFFFFF" font-family="Sora,Arial,sans-serif" font-size="28" font-weight="800">Duelist</text><text x="864" y="1133" text-anchor="middle" fill="#AAB4D3" font-family="Sora,Arial,sans-serif" font-size="19">Win 10 online duels</text></g><text x="76" y="1298" fill="#AAB4D3" font-family="Sora,Arial,sans-serif" font-size="25" font-weight="700" letter-spacing="3">REWARDS & STORE</text><rect x="72" y="1340" width="936" height="326" rx="50" fill="#111A36" stroke="#6076C8" stroke-opacity=".30" stroke-width="3"/><circle cx="188" cy="1465" r="72" fill="#2A2E52"/><circle cx="188" cy="1465" r="48" fill="none" stroke="#F6C75E" stroke-width="10"/><text x="188" y="1480" text-anchor="middle" fill="#FFD66F" font-family="Sora,Arial,sans-serif" font-size="42" font-weight="800">C</text><text x="298" y="1435" fill="#FFFFFF" font-family="Sora,Arial,sans-serif" font-size="36" font-weight="800">Virtual Coins</text><text x="298" y="1482" fill="#AAB4D3" font-family="Sora,Arial,sans-serif" font-size="22">Earned from play or optional store purchases</text><text x="298" y="1525" fill="#85E6FF" font-family="Sora,Arial,sans-serif" font-size="22" font-weight="700">NO CASH VALUE · NO PLAYER TRANSFERS</text><rect x="298" y="1572" width="618" height="18" rx="9" fill="#26345B"/><rect x="298" y="1572" width="430" height="18" rx="9" fill="url(#a)"/><text x="298" y="1622" fill="#8FA1CC" font-family="Sora,Arial,sans-serif" font-size="19">Career rewards · achievements · rewarded ads · verified purchases</text><text x="540" y="1835" fill="#7483AA" font-family="Sora,Arial,sans-serif" font-size="20" text-anchor="middle">Development preview · economy and store rules remain subject to release review</text></svg>