<svg xmlns="http://www.w3.org/2000/svg" viewBox="0 0 1080 1920" role="img" aria-labelledby="t d"><title id="t">Sudoku Duel online match preview</title><desc id="d">Stylized online duel matchmaking and board preview.</desc><defs><linearGradient id="bg" x1="120" y1="0" x2="960" y2="1920"><stop stop-color="#090F23"/><stop offset=".48" stop-color="#18113A"/><stop offset="1" stop-color="#080D1D"/></linearGradient><linearGradient id="a" x1="200" y1="400" x2="850" y2="1250"><stop stop-color="#5DE4FF"/><stop offset=".45" stop-color="#7A70FF"/><stop offset="1" stop-color="#E493FF"/></linearGradient></defs><rect width="1080" height="1920" fill="url(#bg)"/><circle cx="540" cy="510" r="430" fill="#6C55FF" opacity=".10"/><text x="72" y="142" fill="#91A4D6" font-family="Sora,Arial,sans-serif" font-size="31" font-weight="700" letter-spacing="5">ONLINE DUEL</text><text x="72" y="220" fill="#FFFFFF" font-family="Sora,Arial,sans-serif" font-size="58" font-weight="800">One board. Two minds.</text><text x="72" y="273" fill="#AEB8D7" font-family="Sora,Arial,sans-serif" font-size="25">Solve accurately under the same competitive pressure.</text><g><rect x="72" y="348" width="402" height="208" rx="48" fill="#121B39" stroke="#58DFFF" stroke-opacity=".45" stroke-width="3"/><circle cx="168" cy="452" r="60" fill="#1C3453"/><text x="168" y="468" text-anchor="middle" fill="#6EE8FF" font-family="Sora,Arial,sans-serif" font-size="42" font-weight="800">Y</text><text x="254" y="427" fill="#FFFFFF" font-family="Sora,Arial,sans-serif" font-size="32" font-weight="800">You</text><text x="254" y="470" fill="#8EA4D0" font-family="Sora,Arial,sans-serif" font-size="23">Sapphire III</text><text x="254" y="511" fill="#73E5FF" font-family="Sora,Arial,sans-serif" font-size="22" font-weight="700">1420 RATING</text></g><g><rect x="606" y="348" width="402" height="208" rx="48" fill="#121B39" stroke="#B17BFF" stroke-opacity=".45" stroke-width="3"/><circle cx="702" cy="452" r="60" fill="#30224E"/><text x="702" y="468" text-anchor="middle" fill="#D7A5FF" font-family="Sora,Arial,sans-serif" font-size="42" font-weight="800">R</text><text x="788" y="427" fill="#FFFFFF" font-family="Sora,Arial,sans-serif" font-size="32" font-weight="800">Rival</text><text x="788" y="470" fill="#8EA4D0" font-family="Sora,Arial,sans-serif" font-size="23">Sapphire II</text><text x="788" y="511" fill="#D8A1FF" font-family="Sora,Arial,sans-serif" font-size="22" font-weight="700">1468 RATING</text></g><path d="M515 364l58 73-40 21 58 78-23-61 42-21-61-76 37-18-72-61 20 53-19 12z" fill="url(#a)"/><rect x="72" y="622" width="936" height="984" rx="56" fill="#F6F8FF"/><g stroke="#ADB8D0" stroke-width="2"><path d="M176 662v904M280 662v904M384 662v904M488 662v904M592 662v904M696 662v904M800 662v904M904 662v904M112 766h856M112 870h856M112 974h856M112 1078h856M112 1182h856M112 1286h856M112 1390h856M112 1494h856"/></g><g stroke="#4B5D84" stroke-width="7"><path d="M384 662v904M696 662v904M112 974h856M112 1286h856"/></g><g font-family="Sora,Arial,sans-serif" font-size="46" font-weight="700" text-anchor="middle"><g fill="#33415F"><text x="228" y="735">7</text><text x="540" y="735">4</text><text x="852" y="735">2</text><text x="332" y="839">1</text><text x="644" y="839">8</text><text x="956" y="839">9</text><text x="124" y="943">6</text><text x="436" y="943">3</text><text x="748" y="943">5</text></g><g fill="#695DDE"><text x="540" y="1047">7</text><text x="228" y="1151">9</text><text x="852" y="1255">4</text><text x="436" y="1457">8</text></g></g><rect x="112" y="1638" width="856" height="122" rx="38" fill="#121B38"/><text x="160" y="1690" fill="#8FA1D1" font-family="Sora,Arial,sans-serif" font-size="21" font-weight="700">MATCH STATUS</text><text x="160" y="1734" fill="#FFFFFF" font-family="Sora,Arial,sans-serif" font-size="29" font-weight="800">Accuracy first · mistakes matter</text><rect x="772" y="1667" width="148" height="58" rx="29" fill="#222B55"/><text x="846" y="1706" text-anchor="middle" fill="#75E5FF" font-family="Sora,Arial,sans-serif" font-size="24" font-weight="800">02:18</text><text x="540" y="1846" fill="#7483AA" font-family="Sora,Arial,sans-serif" font-size="20" text-anchor="middle">Development preview · online systems in active development</text></svg>